<?xml version="1.0" encoding="utf-8"?>
<!-- Generator: Adobe Illustrator 24.0.2, SVG Export Plug-In . SVG Version: 6.00 Build 0)  -->
<svg version="1.1" id="Capa_1" xmlns="http://www.w3.org/2000/svg" xmlns:xlink="http://www.w3.org/1999/xlink" x="0px" y="0px"
	 viewBox="0 0 612 792" style="enable-background:new 0 0 612 792;" xml:space="preserve">
<style type="text/css">
	.st0{display:none;}
	.st1{fill:#FF0000;}
	.st2{fill:#90BD9F;}
	.st3{fill:#FAEBD1;}
	.st4{fill:#55483D;}
</style>
<g id="Capa_1_1_" class="st0">
	
		<image style="display:inline;overflow:visible;enable-background:new    ;" width="335" height="237" xlink:href="A676920.jpeg"  transform="matrix(1 0 0 1 138.5 277)">
	</image>
</g>
<g id="rojo">
	<path class="st1" d="M174.3,412.9c17.6-20.1,47.7-21.9,53.6-22.1c5-0.2,40.6-1.7,61.9,21.1c6.2,6.6,10.8,14.9,18.6,14.8
		c6.2-0.1,9.6-5.5,17.5-12.7c0,0,7.5-6.8,27.9-17.9c19.9-10.9,57.5-8.8,74.3,7.4c38.5,37.2-0.5,180.7-92.8,240.4
		c-7,4.6-15.2,12.6-27.9,14.8C254.4,667.7,204,580.4,198,570C191.4,558.5,134.8,458.2,174.3,412.9z"/>
</g>
<g id="verde">
	<path class="st2" d="M143.4,201c-28.2,21.5-56.5,53-56.5,53c-5,5.6-9,10.3-11.6,13.4L50.5,316c-2.3,6.5-5.4,16-8,27.7
		c-3.7,16.7-8.8,39.7-4.4,64.7c4.4,25.1,16.7,42.2,24.8,53.1c40.9,55.6,104.9,66.1,139.2,71.7c52,8.5,65.5-5.1,69.1-9.5
		c4.8-5.8,8.3-15,10.3-20c3.9-10.2,8.6-22.3,7.2-36.9c-0.2-2.5-3.1-28.2-22.7-41.1c-9-5.9-21.3-6.2-45.4-6.3
		c-34.6-0.2-39.5,4.2-52.6-1c-20.7-8.2-35.5-29.8-32-35.8c1.8-3.1,8.7-2.9,13.4-1c10.1,3.8,8.9,14.7,16.5,17.9
		c9.3,4,17.4-9.4,39.2-16.9c3.8-1.3,15.9-5.1,30.9-4.2c21.1,1.2,38,11.1,50.4,18.4c14.3,8.4,14,10.9,20.7,12.2
		c17,3.3,23.7-11.7,47.5-21.1c28-11.1,69.3-10.1,84.6,8.4c2.4,2.9,5.1,7.4,9.3,7.4c9.7-0.1,12.9-25,22.7-25.3
		c4.7-0.1,10,5.3,10.3,10.5c0.7,11.1-21.5,22.6-38.2,27.4c-33.2,9.6-44.7-7-72.2,2.1c-2.9,1-34,11.8-42.3,40
		c-8.5,29,11.6,61.8,36.1,74.8c6.3,3.3,22.5,10.6,64,1c39.1-9,87-19.9,118.6-62.2c52.3-69.8,15.4-165.3,12.4-172.9
		C521,202.2,416.4,174.6,380.6,165.2C267.7,135.4,170.6,180.3,143.4,201z"/>
	<path class="st2" d="M41.3,456.2c-10,4.4-3.1,78.2,38.2,136c20.6,28.9,43,44.2,49.5,48.5c18.2,11.9,33.5,17.1,51.6,23.2
		c39.3,13.3,59,19.9,76.3,11.6c23.2-11.1,35.6-42.1,34-67.5c-1.5-24.8-55.3-81.7-40.2-62.2c0,0-39,3.7-69.1,0
		c-34.4-4.2-59.4-18.2-68.1-23.2C62.9,493.5,50.4,452.2,41.3,456.2z"/>
	<path class="st2" d="M568.9,461.8c11.5,4.8,7.3,77.5-35,131.8c-23.9,30.7-52,45.2-83.5,61.4c-39.1,20.2-64.3,33.2-88.2,21.8
		c-23.2-11-34.1-41.3-34.2-64.5c0-6,0.1-25.9,13.4-43.4c10.5-13.8,26.3-22.3,27.3-21.2c0.4,0.4-1.1,2.2-2.5,3.9
		c0,0,38.1,2.9,67.4-1.1c33.5-4.6,57.6-18.6,66-23.5C548.4,498.2,560,458.1,568.9,461.8z"/>
	<path class="st2" d="M429.1,168.3c1,6.3,10.5,4.3,34.6,17.1c35.2,18.7,61.4,47.2,61.4,47.2c12.6,13.8,15.5,20.7,21.7,20
		c11.8-1.2,20.7-28.6,20.6-50.6c-0.1-24.9-11.9-58.3-40.2-71.7C482.1,109.2,426.5,152.3,429.1,168.3z"/>
	<path class="st2" d="M187.6,168.3c-1,6.2-10.6,4.4-35.3,17.1c-31.2,16-53.7,38.3-56.4,40.9c-17.8,17.8-20.8,27.3-28.4,26.4
		c-12.5-1.5-21.1-28.9-21.1-50.6c0.1-24.9,12.1-58.3,41.1-71.7C133.4,109.2,190.2,152.3,187.6,168.3z"/>
</g>
<g id="gris">
	<path class="st3" d="M219.7,379.2c-9.2-15.6,23.8-71.6,74.3-81.2c37.6-7.2,76.8,13,92.8,41.1c8.1,14.2,13.8,36.7,6.2,43.2
		c-3.1,2.7-7.8-1.2-19.6,0.2c-5.5,0.7-9.4,2-13.2,3.3c-10.8,3.7-15.5,7.7-33,18.1c-9.8,5.8-14.8,8.7-16.7,9
		c-13.4,1.6-20.2-12.1-36.1-21.1C246.4,376,225.8,389.4,219.7,379.2z"/>
	<path class="st3" d="M363.1,567.9c-15.1,2.8-21.7,30.6-19.6,49.6c0.8,7.2,2.4,22.2,14.4,29.5c7.6,4.6,18,5.3,25.8,1
		c16.2-8.8,18.7-37.8,9.3-56.9C387.6,580.2,375.1,565.7,363.1,567.9z"/>
	<path class="st3" d="M244.5,569c-2,0-10.1-0.1-16.5,5.3c-6.7,5.6-7.7,14-9.3,29.5c-1.5,14.5-2.2,21.8,1,29.5
		c3.7,8.9,13.3,21.5,24.7,21.1c17.2-0.7,25-29.9,25.8-32.7c0.5-1.7,8.4-32.7-8.2-46.4C254.5,569.2,245.2,569,244.5,569z"/>
	<path class="st3" d="M100.8,221.7c-8.9-2.1-16.6-24.7-7.9-38.6c10.5-16.9,38-9.6,42.3-8.4c1.5,0.4,17.1,4.7,17.1,10.8
		c0,4.6-8.7,5.9-21.3,13.5C110.6,211.3,107.7,223.4,100.8,221.7z"/>
	<path class="st3" d="M467.7,187.7c-1.4-6.5,14.1-20.2,30.6-19.1c10.5,0.7,21.4,7.4,25.7,17.7c2.6,6.3,2,11.9,1.3,18.6
		c-0.8,7.6-3.8,19.8-8.1,20c-1.7,0.1-2.5-1.7-5.6-5.2c-3.5-3.8-4.5-3.8-14.4-11.2c-11.6-8.7-10-8.7-15.8-12.3
		C471.8,190,468.3,190.5,467.7,187.7z"/>
	<path class="st3" d="M480.7,188.3"/>
</g>
<g id="negro">
	<path class="st4" d="M298.6,361.1c0.2,2.1-1.6,3.9-4.4,6.6c-5.4,5.2-8.6,5.1-9.3,8c-0.8,3.2,2,7.7,5.2,8.4c4.2,1,9.1-5,11-8.2
		c0.7-1.3,2-3.1,4.4-6.6c1.1-1.6,1.4-2,1.9-2.1c1.9-0.4,3.5,3.3,8.1,9.6c4.2,5.6,6.2,7.1,8.1,7.9c1.3,0.6,3.6,1.5,6.1,0.7
		c2.2-0.8,3.4-2.7,3.8-3.3c0.3-0.4,1.5-2.6,1.3-4.8c-0.4-2.8-3.1-4-6.8-6.8c-4.4-3.3-10-7.5-9.5-11.2c0.4-3.1,4.7-2.8,7.9-8.3
		c1.6-2.8,1.9-5.4,2.1-6.7c0.2-1.3,0.9-7.5-2.8-12.5c-3.7-5-9.6-5.7-14.4-6.3c-3.7-0.5-8.8-1.1-14.2,1.6c-6,3-12.2,10-11.4,17
		c0.6,5.1,4.9,9.3,6.1,10.4C295.2,358.2,298.3,358.5,298.6,361.1z"/>
	<ellipse class="st4" cx="204.3" cy="321.6" rx="15.1" ry="22.5"/>
	<ellipse class="st4" cx="413.3" cy="321.6" rx="15.1" ry="22.5"/>
</g>
</svg>
