<?xml version="1.0" encoding="utf-8"?>
<!-- Generator: Adobe Illustrator 24.0.2, SVG Export Plug-In . SVG Version: 6.00 Build 0)  -->
<svg version="1.1" xmlns="http://www.w3.org/2000/svg" xmlns:xlink="http://www.w3.org/1999/xlink" x="0px" y="0px"
	 viewBox="0 0 512 512" style="enable-background:new 0 0 512 512;" xml:space="preserve">
<style type="text/css">
	.st0{fill:#FED136;stroke:#FFFFFF;stroke-miterlimit:10;}
	.st1{display:none;}
	.st2{display:inline;fill:#FFFFFF;}
	.st3{fill:#FFFFFF;}
</style>
<g id="fondo">
	<circle class="st0" cx="258" cy="251" r="218"/>
</g>
<g id="Delivery" class="st1">
	<path class="st2" d="M406.2,304.7l6.1-23.4c9.3-35.6,3.7-72.1-20.7-98.7c-1.8-2-4.9-2.1-6.9-0.3c-1.6,1.5-0.9,4.8-0.3,6.9
		c3,10.9,13.2,33.1,16.1,39.5c2,4.4,4,8.7,6,13.1c-8.5,49.4-9.8,60.5-9.7,60.2c1.9-8.4,4.3-20.4,6.5-34.9c4.3-28.1,6.4-42.4,2-53.6
		c-6.8-17.3-22.8-28.4-20.6-31.2c1.1-1.4,6.3,1.4,6.9,0.3c0.9-1.6-8.5-9-15.4-13.5c-9.9-6.5-26.1-14.7-51.1-18.7l3.1-13h2.9
		c10.7,0,20.7-9.3,20.7-19.6c0-8.1-6.4-14.2-14.9-14.2h-34.1c-10.7,0-20.6,9.2-20.6,19.5c0,8.2,6.4,14.3,15,14.3h0.6l-3,12.7
		c-31.6,2.9-63.1,15.9-89.8,37.2c-30.6,24.4-51.5,57-58.8,91.6l-5.2,24.6c-13.3,5.3-21,22.7-12.2,33.6c3.3,4.1,8.2,6.3,13.9,6.3
		h26.2c0.5,5.2,2.4,10,5.6,14c14.7,18.3,46.4,9.3,57.6-14h65c0.4,5.2,2.2,10,5.4,14c14.1,17.9,46.1,9.8,57.9-14h27.8
		c17.2-1.4,26.4-2.1,26.4-2.1c0,0,11.3-8.8,12.9-19.7c0.2-1.4,1.3-8.6-3.4-13.6C420,303.7,413,302.4,406.2,304.7z M315.2,149.7
		c-3.5-0.1-7.6-0.1-10.3-0.1l2.9-12.1h10.3L315.2,149.7z M291.9,123.2c0-4.8,5.5-9.8,10.8-9.8h34.1c3.2,0,5.2,1.7,5.2,4.4
		c0,4.8-5.6,9.9-10.9,9.9c-12,0-22.8,0-31,0C299.2,127.5,291.9,128.9,291.9,123.2z M195.9,357.5c-5.8,0-10.7-2.2-13.9-6.1
		c-11.1-13.8,4.8-39.7,26.3-39.7c5.9,0,10.9,2.2,14.1,6.1C233.3,331.6,217.2,357.5,195.9,357.5z M348.9,343.5
		c-16.9,23.2-49.2,15.7-40.9-9.7c4-12.3,16.8-22,29.5-22C354.4,311.7,359.6,328.8,348.9,343.5z"/>
	<path class="st2" d="M188.4,333.6c-1.6,9,4.4,14.8,11.7,14.8c11.9,0,20.6-14.2,13.5-23.2C206.6,316.4,191,321.8,188.4,333.6z
		 M206.2,333.8c-1.1,4.1-6.5,6-8,4.2c-1.7-2.1,1.7-7.3,5.9-7.3c0.6,0,1.4,0.1,1.9,0.7C206.5,332,206.5,333.1,206.2,333.8z"/>
	<path class="st2" d="M332.8,320.8c-7.2,0-14.2,5.5-15.9,12.6c-3.3,13.1,12.3,20.4,22.8,10.1C348.8,334.7,344.6,320.8,332.8,320.8z
		 M334.7,333.8c-1.4,4.2-6.8,6-8.1,4.2c-0.8-1.1-0.1-3,0.7-4.2C330.1,329.8,336.3,329.2,334.7,333.8z"/>
	<path class="st2" d="M109,226.2c0,2.7,2.2,4.9,4.9,4.9h40.9c2.7,0,4.9-2.2,4.9-4.9s-2.2-4.9-4.9-4.9h-40.9
		C111.2,221.3,109,223.5,109,226.2z"/>
	<path class="st2" d="M125.7,245.2c-2.7,0-4.9,2.2-4.9,4.9c0,2.7,2.2,4.9,4.9,4.9h19.5c2.7,0,4.9-2.2,4.9-4.9c0-2.7-2.2-4.9-4.9-4.9
		H125.7z"/>
	<path class="st2" d="M106.2,245.2H93.4c-2.7,0-4.9,2.2-4.9,4.9c0,2.7,2.2,4.9,4.9,4.9h12.8c2.7,0,4.9-2.2,4.9-4.9
		C111.1,247.3,108.9,245.2,106.2,245.2z"/>
	<path class="st2" d="M142,273.7c0-2.7-2.2-4.9-4.9-4.9h-21c-2.7,0-4.9,2.2-4.9,4.9c0,2.7,2.2,4.9,4.9,4.9h21
		C139.8,278.5,142,276.3,142,273.7z"/>
	<path class="st2" d="M93.4,207.2h52c2.7,0,4.9-2.2,4.9-4.9c0-2.7-2.2-4.9-4.9-4.9h-52c-2.7,0-4.9,2.2-4.9,4.9
		C88.5,205,90.7,207.2,93.4,207.2z"/>
	<path class="st2" d="M164.9,207.2h8.6c2.7,0,4.9-2.2,4.9-4.9c0-2.7-2.2-4.9-4.9-4.9h-8.6c-2.7,0-4.9,2.2-4.9,4.9
		C160,205,162.2,207.2,164.9,207.2z"/>
	<path class="st2" d="M-214,105"/>
	<path class="st2" d="M-188,191"/>
	<path class="st2" d="M538.2,240.8"/>
	<path class="st2" d="M545.8,170.1"/>
</g>
<g id="Pijama_2" class="st1">
	<path class="st2" d="M390.3,161.6c-4.3-7.5-11.9-12.5-26.8-22c-15.4-9.9-24.7-14.3-27.7-15.7c-7.2-3.2-5.1-1.7-15.3-6
		c-9.5-4-13.2-6.2-17.7-4.8c-3,0.9-4.3,2.7-7.3,5.8c-6.5,6.6-13.9,12.1-17.8,14.2c-11.8,6.4-28.8,1.7-39-5.2
		c-9.6-6.5-9.3-12.3-17.2-14.5c-4.9-1.4-9.2-0.2-25.7,7.8c-23.3,11.4-35,19.2-41.2,23.5c-14.2,9.8-17.4,13.7-19.5,18.6
		c-0.9,2.1-5.6,12.8-0.6,22.9c4.3,8.8,14.3,13.8,22.6,13.6c6.1-0.2,17.7-3.3,25.7-7c1.2-0.6,4.5-2.1,5.6-0.9
		c1.1,1.1-0.2,4.1-0.8,5.8c-2.3,5.7-2.5,12.1-4.2,18c-2.7,9-3.4,17.7-4.8,35.1c-0.4,5.2-0.2,3.7-1.1,25.2
		c-0.9,20.4-1.9,39.1,2.5,47.3c5.1,9.5,5.7,10.1,5.7,10.1c1.2,1.2,2.9,2.7,2.8,4.7c-0.1,1.7-1.3,2.8-2.3,3.8c0,0-1.6,1.6-5.4,9.3
		c-2.8,5.7-1.2,14.6,2.3,20.3c5.6,9.4,16.5,11.2,26,12.8c10.8,1.8,16.9,2.8,22-0.9c8.3-5.9,6.6-18.6,15-40c1.1-2.7,3.5-8.6,9.2-12.2
		c1.4-0.9,3.3-2,5.8-2.3c8.8-1,17.6,9.6,21.2,18.3c1.2,3,2,6.1,3.4,12.2c1.7,7.2,1.6,9.2,3.1,12.8c2,4.8,5.4,8.7,8.5,11
		c12.5,9.3,33,0.3,42.6-6.7c4-2.9,7.6-5.4,9.9-9.9c1-1.9,4-7.6,2.3-13.3c-2.1-6.9-8.6-6.2-10.5-12.4c-1.6-5.1,2.1-8.2,4.9-18.6
		c1.4-5.1,1.7-9.3,2.3-17.7c2-28.2-1.3-74.1-5.6-89.6c-0.7-2.4-1.2-6.1-2.3-13.6c-0.9-6.1-1-7.6,0-8.4c2.3-2,7.1,2.2,15.8,4.6
		c2.9,0.8,10.4,2.9,18.3,1.2c1.9-0.4,16-3.7,19.9-15.4C397.6,174.3,392.6,165.7,390.3,161.6z M312.9,210c-0.5,4.8-3.4,10.7-8.2,12.8
		c-3.7,1.6-7,0.2-8.2,2.3c-1,1.7,0.7,3.5,1.5,7.8c0.6,3.3,0.2,5.7-0.3,9.3c-0.4,2.4-1.9,12.4-8.8,20c-8.6,9.6-22.8,12.2-34.4,9
		c-11.1-3.1-20.4-11.7-23.1-20c-1.1-3.2-1.8-8.5-2.3-11.3c-0.8-5.6-0.7-7.4-0.3-9c0.7-3.1,1.9-3.9,1.4-5.2c-1-2.5-5.9-1-10.4-4.1
		c-3-2-4.3-5-4.8-6.1c-2.7-6.2-1.7-16.2,5.6-21.5c9-6.5,19.4-0.1,21.8,2.3c0.9,0.9,2.3,2.3,2.7,4.4c0.3,2-0.6,3.2,0,3.8
		c1,1.1,4.6-1.8,9.3-3.5c1-0.4,9.3-3.1,17.2,0c5,2,6.6,5,8.8,4.1c2.5-1.1,1.1-5.5,3.9-9.5c3.1-4.4,9.6-6,14.7-5
		C307.6,192.2,313.9,201.3,312.9,210z"/>
</g>
<g id="Seguridad" class="st1">
	<path class="st2" d="M390,168.2c-1-2.9-2.6-7.6-6.9-10.3c-4.9-3.1-9-0.9-16.3-1.9c-6.8-0.9-11.1-3.8-17.4-7.7
		c-12-7.5-24.7-13.7-36.6-21.2C283.7,108.8,269,99.6,257,99.7c-14.9,0.1-27.5,7.6-43.6,17.2c-1.3,0.8-10,6.7-27.2,18.5
		c-22,15.1-24.3,16.8-30.2,18c-9.9,2-16.3-0.5-23.8,5.1c-1.4,1.1-6.5,4.8-7.7,10.9c-0.8,3.9,0.5,5.9,1.3,12.2
		c0.8,6.5,0.2,10.7,0,14.1c-0.2,4.7-0.2,18.4,8.4,55.3c5.8,24.9,8.7,37.4,13.5,49.5c2,5,10.3,25.3,27,48.9
		c15.8,22.3,31.2,36.1,40.5,44.4c18.1,16.1,27.2,24.2,37.3,25.1c16.7,1.5,30.1-10.3,52.7-30.9c11.5-10.5,26-23.6,40.5-45.6
		c22.4-33.9,29.3-65.2,37.3-100.9c7.9-35.4,2-33.8,7.1-52.7C390.7,186.2,393.1,177.6,390,168.2z M325.1,213.9
		c-6.6,7.5-11.6,16.3-17.5,24.4c-3.4,4.6-2.2,3.4-13.4,21.4c-18.9,30.2-13.5,19.4-25,37.8c-8.5,13.7-10.6,18.2-15.4,18.6
		c-2.4,0.2-6-0.5-19.9-14.1c-7.8-7.7-9.8-10.6-15.2-16.2c-17.7-18.5-29.9-22.6-28.6-29.5c0.6-2.9,2.7-2.1,10.3-10.3
		c6.7-7.3,7.6-10.8,10.9-10.9c2.5-0.1,3.6,1.9,10.9,9c5.8,5.6,4.2,3.6,11.4,10.5c11.6,11.2,11.5,12.7,13.7,12.7
		c5.1,0,6.5-7.7,20.6-29.6c1.6-2.5,4.9-7.5,11.6-17.4c2.3-3.4,5.6-8.4,9.6-14.1c12.3-17.7,14.9-19.8,17.8-19.7
		c2.9,0.1,2.7,2.2,10.5,8.1c8,6,12.1,6.6,12.7,10.2C330.6,207.9,328,210.5,325.1,213.9z"/>
</g>
<g id="Compra_Online">
	<g>
		<path class="st3" d="M392.9,289.1c-1.1-4.1-3.7-7-7.4-11.6c-2.9-3.5-7.6-8.4-7.6-8.4c-0.1-16.7-0.2-21.2-0.2-21.2
			c0-6.9,0-8.5,0-15.9c0-30-0.5-32.4-0.2-43.2c0.1-1.5,0.3-9.1,0.2-16.2c0-3.1-0.1-6.6-0.1-6.6c-0.1-3.8-0.1-5.9-0.2-7.1
			c-0.2-4.3-0.4-10.2-3.7-15.8c-0.9-1.6-4-6.5-9.7-8.9c-2.5-1-4.1-0.9-11.5-0.8c0,0-12.4,0.3-27,0.5c-7.8,0.1-12.7-0.1-17.4-0.1
			c-12.2-0.2-46.6-0.3-131.1,0c-3.5,0.2-11.1,1.2-15.3,6.9c-3.1,4.2-2.9,9.1-2.7,12.7c0.5,11.8,0.8,23.6,0.6,35.4
			c-0.2,17.4,0.4,17.2,0,33.4c-0.2,7.7-0.4,14.1-0.6,18.6c1.7,0.1,4.1,0.2,7.1,0.2c0.8,0,2.2,0,5-0.1c4.6-0.1,9-0.2,9-0.2
			c0,0,0.2-2.8,0.2-3.7c0.2-3.3,0-4.5-0.1-8.2c0-2.6,0.1-4.2,0.2-6.1c0.3-7.3-0.2-10.2-0.2-21.4c0-6,0.1-6.4,0.2-14.9
			c0-3.6,0-4.3,0-8c0-3.8,0.1-5.7,0-9.1c0-2.7-0.1-2.2-0.1-4.5c0,0,0-2.3,0.1-9.5c0,0,10-0.1,12.2-0.2c16.3-0.2,24.4-0.3,25.1-0.3
			c14.1-0.1,12.4,0.2,28.5,0.1c3.5,0,10.5-0.1,19.6,0c2.6,0,5.3,0,8.2,0.1c7.5,0.1,8.7,0.2,12.6,0.2c6.8,0,7.7-0.2,15.1-0.3
			c5.6-0.1,5.8,0.1,15.1,0.2c10.4,0.1,10-0.1,22.8,0c0,0,1.3,0,17,0.2c-0.1,13.3-0.2,16.2-0.2,16.2c0,6.3,0,7.1,0,15.4
			c0,6.4,0,15.3-0.2,25.9c-0.1,4.4-0.2,10.7-0.4,18.3c0,6.4,0,12.9,0.1,19.3c0,0-0.3,17.3-0.3,17.3c-3.6,0-3.7,0-3.7,0
			c-3.5,0-4.7,0-7.4,0c-1.7,0-4.1,0-7.1,0.1c-4.7,0-9.4,0-14.1,0.1c-8.4,0-16.9,0-25.2,0c-10.2-0.2-18.5-0.3-24.1-0.3
			c-6.5,0-17.8,0-17.8,0c0,0-12.3,0.5-12.3,0.5c0,0-13.3,44-13.3,44c0,0-0.8,0-0.8,0c13.2,0.1,16.6,0.2,16.6,0.2c3,0,4,0.1,7.2,0.1
			c0,0,4,0,7.6,0.1c7.3,0,13.4,0,14.8,0c45.2,0.1,67.7,0.2,73.4,0.5c7.2,0.4,19.4-0.4,24.4-0.5c8.3-0.1,11.3-0.1,14.3-2.4
			C394.1,305.2,394.7,295.5,392.9,289.1z"/>
		<path class="st3" d="M119.6,303.4c0,0-0.1-0.3-0.2-0.9c0,0,0,0,0,0C119.4,302.5,119.6,303.4,119.6,303.4z"/>
		<path class="st3" d="M229.9,250.5c0.2-1,0.4-2.7,1.7-4.1c2.5-2.5,6.7-1.2,16.3-1.3c0.6,0,4.5,0,4.5,0c0,0,1.4-2.7,0.7-4.5
			c-0.8-2-4.5-2.8-4.5-2.8c0,0-6.1-0.4-12.2-0.4c-5.9,0-11.8,0.4-11.8,0.4c0,0-6.2,19.5-6.2,19.5c0,0-16.2-0.3-32-0.7
			c0,0-5.4-0.1-35.4-1c0,0-28.4-0.7-28.4-0.7c0,0-7.3,3.9-7.3,3.9c0,0-2.6,6.2-2.6,6.2c3.9,21.7,6.1,34.2,6.7,37.5
			c0.1,0.2,0.6,1.9,5.1,20c0,0,0.8,2.4,2.1,3.9c2,2.2,5.6,2.8,5.6,2.8c0,0,22.3,0.4,46.5,0.2c12.8-0.1,28.9-0.4,28.9-0.4
			c0,0,2.6,0.2,4.1,1.3c1.2,0.9,2,2.5,1.9,4.1c-0.1,1.9-3.9,6.7-2.8,5.1c0,0-12.6-0.1-23.4-0.2c-19.7-0.2-17.5-0.3-20.4-0.2
			c-17.5,0.3-26.3,0.5-30.2,4.9c-4.4,5-6,14.8-0.6,21c4.5,5.3,12.9,6.7,18.9,3.4c3.5-1.9,6.3-5.6,7.1-9.4c0.3-1.3,0.2-2.2-0.2-9.4
			c0.7,0,17.9,0.4,17.9,0.4c0,0-2,7.5,0.3,12.6c1.9,4.1,6.3,5.9,7.8,6.5c5.1,2,12.7,2,16.9-2.6c3.4-3.6,3.6-9,3.6-10.3
			c0.1-2.4-0.2-6.9-0.2-6.9c8.5-0.5,11.4-2.8,11.4-2.8c5.2-4,3.5-13.4,3.4-13.9c-0.1-0.4-1.9-9.7-7.5-11.1c-2.3-0.6-5,0.2-5.6-1.1
			c-0.4-0.8,0.5-1.9,0.6-2.1C214.8,312.5,227.7,265.4,229.9,250.5z M124.5,276.6c0,0-1.3-10.5-1.3-10.5c0,0,10.1,0.2,10.1,0.2
			c0,0,1.9,10.9,1.9,10.9C135.2,277.3,124.5,276.6,124.5,276.6z M128.9,298.3c0,0-1.3-10.5-1.3-10.5c0,0,10.1,0.2,10.1,0.2
			c0,0,1.9,10.9,1.9,10.9C139.7,298.9,128.9,298.3,128.9,298.3z M133.7,318.4c0,0-1.3-10.5-1.3-10.5c0,0,10.1,0.2,10.1,0.2
			c0,0,1.9,10.9,1.9,10.9C144.4,319.1,133.7,318.4,133.7,318.4z M143.8,266.4c6.3-0.1,12.6-0.3,18.9-0.4c-0.2,3.7-0.3,7.4-0.5,11.2
			c-5.5,0.2-11,0.4-16.5,0.6C145.1,273.9,144.4,270.1,143.8,266.4z M162.6,313.1c-0.1,2-0.2,4-0.2,5.8c-2.8,0.1-5.6,0.3-8.4,0.4
			c-0.1-1.6-0.2-3.8-0.4-6.1c-0.1-0.8-0.2-1.6-0.2-1.7c-0.2-1.4-0.3-2.6-0.5-3.6c0,0,10.1,0.2,10.1,0.2
			C162.9,309.7,162.8,311.4,162.6,313.1z M162.9,298.5c-4.2,0-8.5,0.1-12.7,0.1c-0.7-3.6-1.4-7.2-2.1-10.8c1.6,0.1,3.3,0.1,5.1,0.1
			c3.5,0,6.8-0.1,10-0.3C163,291.2,162.9,294.9,162.9,298.5z M148,360.6c-3,0-5.4-2.4-5.4-5.4c0-3,2.4-5.4,5.4-5.4
			c3,0,5.4,2.4,5.4,5.4C153.4,358.2,151,360.6,148,360.6z M194.2,360.6c-3,0-5.4-2.4-5.4-5.4c0-3,2.4-5.4,5.4-5.4
			c3,0,5.4,2.4,5.4,5.4C199.6,358.2,197.1,360.6,194.2,360.6z M202.9,265.7c3.9,0.1,7.9,0.3,11.8,0.4c-0.8,3.7-1.7,7.3-2.5,11
			c-3.9,0-7.8,0.1-11.6,0.1C201.4,273.4,202.1,269.6,202.9,265.7z M182.2,313.6c-0.5,1.8-1.1,3.5-1.6,5.3c-2.4-0.1-4.8-0.3-7.2-0.4
			c0-3.5,0-7,0-10.5c3.5,0.1,7,0.1,10.5,0.2C183.3,310,182.8,311.8,182.2,313.6z M184.9,298.9c-4-0.1-8-0.1-12-0.2
			c0-3.6,0-7.3,0-10.9c5.1-0.1,10.2-0.2,15.3-0.2C187.1,291.4,186,295.1,184.9,298.9z M172.7,277.3c0.1-3.8,0.3-7.6,0.4-11.5
			c6.4-0.2,12.9-0.4,19.3-0.5c-1,4-2,8-3,12C183.9,277.3,178.3,277.3,172.7,277.3z M201.2,318.9c-3.5,0.1-7,0.3-10.5,0.4
			c0.9-3.8,1.7-7.5,2.6-11.3c0.9,0,1.9,0,2.9,0c2.8,0,5.6,0,8.3-0.1C203.4,311.6,202.3,315.2,201.2,318.9z M206.2,298.8
			c-3.5,0.1-7,0.1-10.6,0.2c0.6-3.7,1.2-7.4,1.7-11.1c1.1,0,2.3,0,3.5,0c3.3,0,6.5-0.1,9.6-0.3C209,291.3,207.6,295,206.2,298.8z"/>
	</g>
</g>
</svg>
