<?xml version="1.0" encoding="utf-8"?>
<!-- Generator: Adobe Illustrator 24.0.2, SVG Export Plug-In . SVG Version: 6.00 Build 0)  -->
<svg version="1.1" xmlns="http://www.w3.org/2000/svg" xmlns:xlink="http://www.w3.org/1999/xlink" x="0px" y="0px"
	 viewBox="0 0 512 512" style="enable-background:new 0 0 512 512;" xml:space="preserve">
<style type="text/css">
	.st0{fill:#FED136;stroke:#FFFFFF;stroke-miterlimit:10;}
	.st1{fill:#FFFFFF;}
	.st2{display:none;}
</style>
<g id="fondo">
	<circle class="st0" cx="258" cy="251" r="218"/>
</g>
<g id="Capa_1">
	<path class="st1" d="M406.2,304.7l6.1-23.4c9.3-35.6,3.7-72.1-20.7-98.7c-1.8-2-4.9-2.1-6.9-0.3c-1.6,1.5-0.9,4.8-0.3,6.9
		c3,10.9,13.2,33.1,16.1,39.5c2,4.4,4,8.7,6,13.1c-8.5,49.4-9.8,60.5-9.7,60.2c1.9-8.4,4.3-20.4,6.5-34.9c4.3-28.1,6.4-42.4,2-53.6
		c-6.8-17.3-22.8-28.4-20.6-31.2c1.1-1.4,6.3,1.4,6.9,0.3c0.9-1.6-8.5-9-15.4-13.5c-9.9-6.5-26.1-14.7-51.1-18.7l3.1-13h2.9
		c10.7,0,20.7-9.3,20.7-19.6c0-8.1-6.4-14.2-14.9-14.2h-34.1c-10.7,0-20.6,9.2-20.6,19.5c0,8.2,6.4,14.3,15,14.3h0.6l-3,12.7
		c-31.6,2.9-63.1,15.9-89.8,37.2c-30.6,24.4-51.5,57-58.8,91.6l-5.2,24.6c-13.3,5.3-21,22.7-12.2,33.6c3.3,4.1,8.2,6.3,13.9,6.3
		h26.2c0.5,5.2,2.4,10,5.6,14c14.7,18.3,46.4,9.3,57.6-14h65c0.4,5.2,2.2,10,5.4,14c14.1,17.9,46.1,9.8,57.9-14h27.8
		c17.2-1.4,26.4-2.1,26.4-2.1c0,0,11.3-8.8,12.9-19.7c0.2-1.4,1.3-8.6-3.4-13.6C420,303.7,413,302.4,406.2,304.7z M315.2,149.7
		c-3.5-0.1-7.6-0.1-10.3-0.1l2.9-12.1h10.3L315.2,149.7z M291.9,123.2c0-4.8,5.5-9.8,10.8-9.8h34.1c3.2,0,5.2,1.7,5.2,4.4
		c0,4.8-5.6,9.9-10.9,9.9c-12,0-22.8,0-31,0C299.2,127.5,291.9,128.9,291.9,123.2z M195.9,357.5c-5.8,0-10.7-2.2-13.9-6.1
		c-11.1-13.8,4.8-39.7,26.3-39.7c5.9,0,10.9,2.2,14.1,6.1C233.3,331.6,217.2,357.5,195.9,357.5z M348.9,343.5
		c-16.9,23.2-49.2,15.7-40.9-9.7c4-12.3,16.8-22,29.5-22C354.4,311.7,359.6,328.8,348.9,343.5z"/>
	<path class="st1" d="M188.4,333.6c-1.6,9,4.4,14.8,11.7,14.8c11.9,0,20.6-14.2,13.5-23.2C206.6,316.4,191,321.8,188.4,333.6z
		 M206.2,333.8c-1.1,4.1-6.5,6-8,4.2c-1.7-2.1,1.7-7.3,5.9-7.3c0.6,0,1.4,0.1,1.9,0.7C206.5,332,206.5,333.1,206.2,333.8z"/>
	<path class="st1" d="M332.8,320.8c-7.2,0-14.2,5.5-15.9,12.6c-3.3,13.1,12.3,20.4,22.8,10.1C348.8,334.7,344.6,320.8,332.8,320.8z
		 M334.7,333.8c-1.4,4.2-6.8,6-8.1,4.2c-0.8-1.1-0.1-3,0.7-4.2C330.1,329.8,336.3,329.2,334.7,333.8z"/>
	<path class="st1" d="M109,226.2c0,2.7,2.2,4.9,4.9,4.9h40.9c2.7,0,4.9-2.2,4.9-4.9s-2.2-4.9-4.9-4.9h-40.9
		C111.2,221.3,109,223.5,109,226.2z"/>
	<path class="st1" d="M125.7,245.2c-2.7,0-4.9,2.2-4.9,4.9c0,2.7,2.2,4.9,4.9,4.9h19.5c2.7,0,4.9-2.2,4.9-4.9c0-2.7-2.2-4.9-4.9-4.9
		H125.7z"/>
	<path class="st1" d="M106.2,245.2H93.4c-2.7,0-4.9,2.2-4.9,4.9c0,2.7,2.2,4.9,4.9,4.9h12.8c2.7,0,4.9-2.2,4.9-4.9
		C111.1,247.3,108.9,245.2,106.2,245.2z"/>
	<path class="st1" d="M142,273.7c0-2.7-2.2-4.9-4.9-4.9h-21c-2.7,0-4.9,2.2-4.9,4.9c0,2.7,2.2,4.9,4.9,4.9h21
		C139.8,278.5,142,276.3,142,273.7z"/>
	<path class="st1" d="M93.4,207.2h52c2.7,0,4.9-2.2,4.9-4.9c0-2.7-2.2-4.9-4.9-4.9h-52c-2.7,0-4.9,2.2-4.9,4.9
		C88.5,205,90.7,207.2,93.4,207.2z"/>
	<path class="st1" d="M164.9,207.2h8.6c2.7,0,4.9-2.2,4.9-4.9c0-2.7-2.2-4.9-4.9-4.9h-8.6c-2.7,0-4.9,2.2-4.9,4.9
		C160,205,162.2,207.2,164.9,207.2z"/>
	<path class="st1" d="M-214,105"/>
	<path class="st1" d="M-188,191"/>
	<path class="st1" d="M538.2,240.8"/>
	<path class="st1" d="M545.8,170.1"/>
</g>
<g id="Capa_3" class="st2">
</g>
</svg>
